<svg width="800" height="161" viewBox="0 0 800 161" fill="none" xmlns="http://www.w3.org/2000/svg">
<g clip-path="url(#clip0_4647_83078)">
<rect width="800" height="161" fill="white"/>
<rect width="1922" height="161" transform="translate(-561)" fill="#EBEBF0"/>
<path d="M268.727 109.188C268.48 108.016 267.473 107.383 266.359 107.383C264.824 107.383 263.629 108.566 263.629 110.758C263.629 112.949 264.824 114.133 266.359 114.133C267.473 114.133 268.469 113.5 268.727 112.34H269.781C269.477 114.074 268.082 115.117 266.359 115.117C264.18 115.117 262.609 113.441 262.609 110.758C262.609 108.074 264.18 106.398 266.359 106.398C268.07 106.398 269.465 107.43 269.781 109.188H268.727ZM273.73 115.129C271.996 115.129 270.824 113.828 270.824 111.848C270.824 109.867 271.996 108.555 273.73 108.555C275.453 108.555 276.613 109.867 276.613 111.848C276.613 113.828 275.453 115.129 273.73 115.129ZM273.73 114.238C275.008 114.238 275.605 113.113 275.605 111.848C275.605 110.582 275.008 109.445 273.73 109.445C272.43 109.445 271.832 110.582 271.832 111.848C271.832 113.113 272.43 114.238 273.73 114.238ZM277.938 117.391V108.637H278.91V109.645H279.027C279.238 109.305 279.637 108.555 280.867 108.555C282.461 108.555 283.574 109.82 283.574 111.836C283.574 113.852 282.461 115.129 280.879 115.129C279.66 115.129 279.238 114.379 279.027 114.027H278.945V117.391H277.938ZM278.922 111.812C278.922 113.242 279.566 114.227 280.738 114.227C281.945 114.227 282.566 113.172 282.566 111.812C282.566 110.488 281.957 109.457 280.738 109.457C279.543 109.457 278.922 110.406 278.922 111.812ZM285.297 117.391C285.074 117.391 284.863 117.379 284.734 117.367V116.465C284.84 116.477 285.074 116.488 285.227 116.488C285.637 116.488 285.977 116.453 286.316 115.527L286.504 115.047L284.148 108.637H285.25L286.984 113.688H287.055L288.789 108.637H289.891L287.195 115.914C286.82 116.91 286.199 117.391 285.297 117.391ZM291.004 115V108.637H291.977V109.609H292.047C292.281 108.965 292.938 108.531 293.688 108.531C293.84 108.531 294.098 108.543 294.215 108.555V109.574C294.145 109.551 293.863 109.504 293.605 109.504C292.691 109.504 292.012 110.137 292.012 110.992V115H291.004ZM295.199 115V108.637H296.207V115H295.199ZM295.703 107.582C295.316 107.582 295 107.289 295 106.914C295 106.539 295.316 106.246 295.703 106.246C296.09 106.246 296.418 106.539 296.418 106.914C296.418 107.289 296.09 107.582 295.703 107.582ZM300.391 117.52C298.855 117.52 297.812 116.852 297.695 115.668H298.75C298.891 116.312 299.488 116.641 300.391 116.641C301.48 116.641 302.148 116.172 302.148 115.117V113.828H302.066C301.855 114.18 301.445 114.906 300.215 114.906C298.668 114.906 297.508 113.734 297.508 111.73C297.508 109.773 298.633 108.555 300.227 108.555C301.457 108.555 301.855 109.305 302.09 109.645H302.172V108.637H303.156V115.176C303.156 116.816 301.938 117.52 300.391 117.52ZM300.355 114.004C301.516 114.004 302.172 113.172 302.172 111.766C302.172 110.406 301.539 109.457 300.355 109.457C299.137 109.457 298.527 110.488 298.527 111.766C298.527 113.09 299.148 114.004 300.355 114.004ZM305.77 111.18V115H304.762V106.516H305.77V109.633H305.852C306.145 108.977 306.719 108.555 307.727 108.555C309.027 108.555 309.895 109.328 309.895 110.957V115H308.887V111.027C308.887 110.031 308.336 109.457 307.422 109.457C306.473 109.457 305.77 110.078 305.77 111.18ZM314.289 108.637V109.48H312.953V113.172C312.953 113.992 313.352 114.121 313.785 114.121C313.973 114.121 314.23 114.109 314.383 114.098V115.035C314.23 115.059 313.973 115.082 313.68 115.082C312.836 115.082 311.934 114.555 311.934 113.43V109.48H310.973V108.637H311.934V107.113H312.953V108.637H314.289ZM318.59 115L318.578 114.227L321.473 111.18C322.48 110.113 322.961 109.539 322.961 108.754C322.961 107.887 322.223 107.312 321.273 107.312C320.266 107.312 319.621 107.957 319.621 108.906H318.625C318.613 107.406 319.773 106.398 321.309 106.398C322.844 106.398 323.945 107.43 323.945 108.754C323.945 109.703 323.5 110.441 322 111.988L320.055 113.992V114.062H324.098V115H318.59ZM328.41 115.117C326.523 115.117 325.445 113.535 325.445 110.758C325.445 108.004 326.547 106.398 328.41 106.398C330.273 106.398 331.375 108.004 331.375 110.758C331.375 113.535 330.285 115.117 328.41 115.117ZM328.41 114.18C329.629 114.18 330.344 112.949 330.344 110.758C330.344 108.566 329.629 107.312 328.41 107.312C327.191 107.312 326.465 108.566 326.465 110.758C326.465 112.949 327.18 114.18 328.41 114.18ZM332.781 115L332.77 114.227L335.664 111.18C336.672 110.113 337.152 109.539 337.152 108.754C337.152 107.887 336.414 107.312 335.465 107.312C334.457 107.312 333.812 107.957 333.812 108.906H332.816C332.805 107.406 333.965 106.398 335.5 106.398C337.035 106.398 338.137 107.43 338.137 108.754C338.137 109.703 337.691 110.441 336.191 111.988L334.246 113.992V114.062H338.289V115H332.781ZM342.59 115.117C341.055 115.117 339.895 114.168 339.836 112.867H340.855C340.938 113.629 341.676 114.191 342.59 114.191C343.691 114.191 344.488 113.383 344.488 112.316C344.488 111.215 343.656 110.406 342.52 110.395C341.805 110.383 341.254 110.605 340.938 111.156H339.918L340.516 106.516H345.109V107.453H341.395L341.078 109.938H341.16C341.535 109.645 342.109 109.445 342.707 109.445C344.324 109.445 345.52 110.641 345.52 112.293C345.52 113.934 344.277 115.117 342.59 115.117ZM347.395 115.07C346.984 115.07 346.633 114.73 346.645 114.309C346.633 113.898 346.984 113.559 347.395 113.559C347.805 113.559 348.145 113.898 348.145 114.309C348.145 114.73 347.805 115.07 347.395 115.07Z" fill="#777798"/>
<path d="M362.736 115.64C362.28 115.64 361.572 115.46 361.452 115.052L360.24 110.672L359.688 116.072H357.42L358.428 107.588C358.5 106.856 359.148 106.436 359.688 106.388C360.264 106.34 361.068 106.58 361.284 107.372L362.736 112.868L364.188 107.372C364.404 106.58 365.208 106.34 365.784 106.388C366.324 106.436 366.972 106.856 367.044 107.588L368.052 116.072H365.784L365.244 110.636L364.02 115.052C363.9 115.46 363.192 115.64 362.736 115.64ZM368.473 116.072L371.557 107.36C371.797 106.688 372.457 106.364 373.105 106.364C373.717 106.364 374.353 106.712 374.581 107.36L377.713 116.072H375.073L374.605 114.584H371.521L371.065 116.072H368.473ZM373.069 109.568L372.145 112.556H373.981L373.069 109.568ZM385.78 112.22V112.868C385.78 115.304 384.064 116.276 382.012 116.276C379.936 116.276 377.848 115.256 377.848 112.628V110.012C377.848 107.36 379.936 106.364 382.048 106.364C383.152 106.364 384.124 106.616 384.592 106.952C385.084 107.3 385.324 107.876 385.036 108.38C384.796 108.8 384.352 108.968 383.944 108.896C383.668 108.848 383.464 108.716 383.284 108.644C382.996 108.536 382.576 108.488 382.048 108.488C381.208 108.488 380.296 109.016 380.296 110.12V112.52C380.296 113.624 381.148 114.152 382.012 114.152C382.828 114.152 383.584 113.756 383.584 112.904V112.76C383.584 112.52 383.536 112.484 383.308 112.484H382.912C382.216 112.484 381.952 111.956 381.952 111.476C381.952 110.996 382.228 110.432 382.912 110.432H384.004C385.42 110.432 385.78 110.876 385.78 112.22ZM389.482 107.084L392.41 112.292V107.504C392.41 106.772 392.926 106.364 393.502 106.364C394.078 106.364 394.594 106.772 394.594 107.504V115.064C394.594 115.796 393.958 116.168 393.418 116.216C392.842 116.264 392.146 116.036 391.846 115.52L388.918 110.336V116.072H386.734V107.588C386.734 106.844 387.382 106.448 387.934 106.388C388.51 106.328 389.182 106.568 389.482 107.084ZM398.346 108.86V110.144H401.622C402.318 110.144 402.594 110.72 402.594 111.2C402.594 111.68 402.33 112.22 401.622 112.22H398.346V113.624C398.346 113.912 398.418 113.972 398.694 113.972H401.85C402.558 113.972 402.822 114.512 402.822 115.004C402.822 115.496 402.546 116.072 401.85 116.072H397.758C396.318 116.072 395.886 115.556 395.886 114.176V108.308C395.886 106.928 396.318 106.412 397.758 106.412H401.73C402.426 106.412 402.702 106.988 402.702 107.48C402.702 107.972 402.438 108.512 401.73 108.512H398.694C398.418 108.512 398.346 108.572 398.346 108.86ZM408.488 116.072H405.992V108.536H404.156C403.46 108.536 403.184 107.96 403.184 107.468C403.184 106.976 403.448 106.436 404.156 106.436H410.324C411.032 106.436 411.296 106.976 411.296 107.468C411.296 107.96 411.02 108.536 410.324 108.536H408.488V116.072ZM411.905 116.072V107.564C411.905 106.736 412.481 106.364 413.153 106.364C413.825 106.364 414.401 106.736 414.401 107.564V116.072H411.905ZM417.984 110.18V112.46C417.984 113.588 418.788 114.152 419.652 114.152C420.204 114.152 420.6 114.068 420.924 113.924C421.104 113.84 421.32 113.708 421.548 113.672C421.98 113.6 422.34 113.732 422.58 114.128C422.88 114.62 422.688 115.16 422.268 115.496C421.608 116.036 420.576 116.276 419.652 116.276C417.576 116.276 415.512 115.22 415.512 112.568V110.072C415.512 107.42 417.576 106.364 419.652 106.364C420.72 106.364 421.548 106.616 422.016 106.952C422.508 107.3 422.748 107.876 422.46 108.38C422.22 108.8 421.776 108.968 421.368 108.896C421.092 108.848 420.888 108.716 420.708 108.644C420.42 108.536 420.144 108.488 419.652 108.488C418.788 108.488 417.984 109.052 417.984 110.18Z" fill="#494960"/>
<path d="M433.312 115H432.211L435.316 106.516H436.43L439.535 115H438.422L437.578 112.609H434.168L433.312 115ZM434.484 111.684H437.25L435.902 107.887H435.832L434.484 111.684ZM441.562 106.516V115H440.555V106.516H441.562ZM444.176 106.516V115H443.168V106.516H444.176ZM448.922 115V106.516H451.805C453.797 106.516 454.699 107.617 454.699 109.129C454.699 110.248 454.195 111.133 453.117 111.508L455.027 115H453.797L452.027 111.695L451.816 111.707H449.977V115H448.922ZM449.977 110.746H451.77C453.117 110.746 453.656 110.137 453.656 109.129C453.656 108.109 453.117 107.453 451.758 107.453H449.977V110.746ZM456.094 115V108.637H457.102V115H456.094ZM456.598 107.582C456.211 107.582 455.895 107.289 455.895 106.914C455.895 106.539 456.211 106.246 456.598 106.246C456.984 106.246 457.312 106.539 457.312 106.914C457.312 107.289 456.984 107.582 456.598 107.582ZM461.285 117.52C459.75 117.52 458.707 116.852 458.59 115.668H459.645C459.785 116.312 460.383 116.641 461.285 116.641C462.375 116.641 463.043 116.172 463.043 115.117V113.828H462.961C462.75 114.18 462.34 114.906 461.109 114.906C459.562 114.906 458.402 113.734 458.402 111.73C458.402 109.773 459.527 108.555 461.121 108.555C462.352 108.555 462.75 109.305 462.984 109.645H463.066V108.637H464.051V115.176C464.051 116.816 462.832 117.52 461.285 117.52ZM461.25 114.004C462.41 114.004 463.066 113.172 463.066 111.766C463.066 110.406 462.434 109.457 461.25 109.457C460.031 109.457 459.422 110.488 459.422 111.766C459.422 113.09 460.043 114.004 461.25 114.004ZM466.664 111.18V115H465.656V106.516H466.664V109.633H466.746C467.039 108.977 467.613 108.555 468.621 108.555C469.922 108.555 470.789 109.328 470.789 110.957V115H469.781V111.027C469.781 110.031 469.23 109.457 468.316 109.457C467.367 109.457 466.664 110.078 466.664 111.18ZM475.184 108.637V109.48H473.848V113.172C473.848 113.992 474.246 114.121 474.68 114.121C474.867 114.121 475.125 114.109 475.277 114.098V115.035C475.125 115.059 474.867 115.082 474.574 115.082C473.73 115.082 472.828 114.555 472.828 113.43V109.48H471.867V108.637H472.828V107.113H473.848V108.637H475.184ZM479.906 110.289C479.766 109.762 479.367 109.41 478.617 109.41C477.832 109.41 477.27 109.832 477.27 110.371C477.27 110.793 477.609 111.086 478.359 111.262L479.309 111.496C480.445 111.766 481.008 112.328 481.008 113.219C481.008 114.32 480.105 115.129 478.512 115.129C477.082 115.129 476.227 114.496 476.062 113.336H477.117C477.234 113.957 477.691 114.25 478.488 114.25C479.391 114.25 479.965 113.875 479.965 113.277C479.965 112.832 479.648 112.527 478.922 112.363L477.961 112.141C476.848 111.883 476.262 111.273 476.262 110.43C476.262 109.34 477.211 108.555 478.617 108.555C479.93 108.555 480.762 109.258 480.891 110.289H479.906ZM485.461 115V106.516H488.344C490.336 106.516 491.238 107.617 491.238 109.129C491.238 110.248 490.734 111.133 489.656 111.508L491.566 115H490.336L488.566 111.695L488.355 111.707H486.516V115H485.461ZM486.516 110.746H488.309C489.656 110.746 490.195 110.137 490.195 109.129C490.195 108.109 489.656 107.453 488.297 107.453H486.516V110.746ZM495.234 115.129C493.395 115.129 492.258 113.828 492.258 111.871C492.258 109.914 493.406 108.555 495.141 108.555C496.477 108.555 497.883 109.375 497.883 111.73V112.152H493.266C493.312 113.5 494.098 114.238 495.234 114.238C495.996 114.238 496.477 113.91 496.711 113.512H497.789C497.484 114.473 496.547 115.129 495.234 115.129ZM493.277 111.297H496.863C496.863 110.23 496.184 109.445 495.141 109.445C494.039 109.445 493.336 110.312 493.277 111.297ZM502.734 110.289C502.594 109.762 502.195 109.41 501.445 109.41C500.66 109.41 500.098 109.832 500.098 110.371C500.098 110.793 500.438 111.086 501.188 111.262L502.137 111.496C503.273 111.766 503.836 112.328 503.836 113.219C503.836 114.32 502.934 115.129 501.34 115.129C499.91 115.129 499.055 114.496 498.891 113.336H499.945C500.062 113.957 500.52 114.25 501.316 114.25C502.219 114.25 502.793 113.875 502.793 113.277C502.793 112.832 502.477 112.527 501.75 112.363L500.789 112.141C499.676 111.883 499.09 111.273 499.09 110.43C499.09 109.34 500.039 108.555 501.445 108.555C502.758 108.555 503.59 109.258 503.719 110.289H502.734ZM507.82 115.129C505.98 115.129 504.844 113.828 504.844 111.871C504.844 109.914 505.992 108.555 507.727 108.555C509.062 108.555 510.469 109.375 510.469 111.73V112.152H505.852C505.898 113.5 506.684 114.238 507.82 114.238C508.582 114.238 509.062 113.91 509.297 113.512H510.375C510.07 114.473 509.133 115.129 507.82 115.129ZM505.863 111.297H509.449C509.449 110.23 508.77 109.445 507.727 109.445C506.625 109.445 505.922 110.312 505.863 111.297ZM511.781 115V108.637H512.754V109.609H512.824C513.059 108.965 513.715 108.531 514.465 108.531C514.617 108.531 514.875 108.543 514.992 108.555V109.574C514.922 109.551 514.641 109.504 514.383 109.504C513.469 109.504 512.789 110.137 512.789 110.992V115H511.781ZM521.414 108.637L519.059 115H518.016L515.672 108.637H516.773L518.508 113.688H518.578L520.312 108.637H521.414ZM524.965 115.129C523.125 115.129 521.988 113.828 521.988 111.871C521.988 109.914 523.137 108.555 524.871 108.555C526.207 108.555 527.613 109.375 527.613 111.73V112.152H522.996C523.043 113.5 523.828 114.238 524.965 114.238C525.727 114.238 526.207 113.91 526.441 113.512H527.52C527.215 114.473 526.277 115.129 524.965 115.129ZM523.008 111.297H526.594C526.594 110.23 525.914 109.445 524.871 109.445C523.77 109.445 523.066 110.312 523.008 111.297ZM531.328 115.129C529.746 115.129 528.621 113.852 528.621 111.836C528.621 109.82 529.746 108.555 531.34 108.555C532.57 108.555 532.969 109.305 533.18 109.645H533.25V106.516H534.27V115H533.285V114.027H533.18C532.957 114.379 532.547 115.129 531.328 115.129ZM531.469 114.227C532.629 114.227 533.285 113.242 533.285 111.812C533.285 110.406 532.652 109.457 531.469 109.457C530.25 109.457 529.641 110.488 529.641 111.812C529.641 113.172 530.262 114.227 531.469 114.227ZM536.73 115.07C536.32 115.07 535.969 114.73 535.98 114.309C535.969 113.898 536.32 113.559 536.73 113.559C537.141 113.559 537.48 113.898 537.48 114.309C537.48 114.73 537.141 115.07 536.73 115.07Z" fill="#777798"/>
<path d="M293.012 48.5312V58.9727H292.086V48.5312H293.012ZM287.469 49.3398C289.016 49.3516 290.129 50.7578 290.129 52.9727C290.129 55.1875 289.016 56.5938 287.469 56.5938C285.91 56.5938 284.809 55.1875 284.809 52.9727C284.809 50.7578 285.91 49.3516 287.469 49.3398ZM287.469 50.1602C286.426 50.1719 285.699 51.2734 285.699 52.9727C285.699 54.6719 286.426 55.7734 287.469 55.7734C288.512 55.7734 289.238 54.6719 289.238 52.9727C289.238 51.2734 288.512 50.1719 287.469 50.1602ZM304.285 53.6875V54.4492H294.793V53.6875H297.148V52.2227C296.316 51.9004 295.848 51.3672 295.848 50.6641C295.848 49.4336 297.254 48.7305 299.539 48.7305C301.801 48.7305 303.219 49.4336 303.219 50.6641C303.219 51.3613 302.756 51.8945 301.93 52.2109V53.6875H304.285ZM299.539 55.2461C301.777 55.2461 303.113 55.8906 303.125 57.0859C303.113 58.2695 301.777 58.9258 299.539 58.9258C297.277 58.9258 295.941 58.2695 295.941 57.0859C295.941 55.8906 297.277 55.2461 299.539 55.2461ZM299.539 55.9492C297.863 55.9609 296.867 56.3711 296.879 57.0859C296.867 57.7891 297.863 58.2109 299.539 58.2109C301.191 58.2109 302.199 57.7891 302.199 57.0859C302.199 56.3711 301.191 55.9609 299.539 55.9492ZM299.539 49.457C297.84 49.457 296.785 49.9141 296.797 50.6641C296.785 51.4258 297.84 51.8711 299.539 51.8711C301.227 51.8711 302.281 51.4258 302.281 50.6641C302.281 49.9141 301.227 49.457 299.539 49.457ZM298.062 53.6875H301.016V52.4688C300.576 52.5449 300.084 52.5859 299.539 52.5859C298.994 52.5859 298.502 52.5449 298.062 52.4688V53.6875ZM314.855 50.1484V50.8984H313.309V52.3633H314.855V53.1484H313.309V54.7305H312.395V48.5312H313.309V50.1484H314.855ZM313.309 55.2109V58.9492H312.395V55.9727H306.488V55.2109H313.309ZM308.094 49.1641C309.676 49.1523 310.824 50.1719 310.836 51.6133C310.824 53.0781 309.676 54.0859 308.094 54.0859C306.512 54.0859 305.352 53.0781 305.363 51.6133C305.352 50.1719 306.512 49.1523 308.094 49.1641ZM308.094 49.9492C307.039 49.9492 306.254 50.6289 306.266 51.6133C306.254 52.6094 307.039 53.3008 308.094 53.2891C309.16 53.3008 309.934 52.6094 309.934 51.6133C309.934 50.6289 309.16 49.9492 308.094 49.9492ZM321.312 49.3398V49.8906C321.301 50.5703 321.301 51.6133 321.043 52.9727L320.117 52.9023C320.369 51.6543 320.393 50.7695 320.41 50.1133H316.121V49.3398H321.312ZM318.629 51.6484V53.8867C319.783 53.8398 320.979 53.7578 322.062 53.6055L322.121 54.2852C319.941 54.6602 317.422 54.707 315.57 54.707L315.477 53.9453C316.15 53.9395 316.912 53.9336 317.715 53.9102V51.6484H318.629ZM323.703 48.5312V51.9297H325.227V52.7148H323.703V56.3711H322.766V48.5312H323.703ZM324.043 57.9531V58.7266H317.082V55.668H318.008V57.9531H324.043Z" fill="#B1B1C4"/>
<path d="M339.895 49.4336V58.4961H339.172V49.4336H339.895Z" fill="#CECEDA"/>
<path d="M363.316 48.5312V58.9492H362.414V53.5H360.973V58.4336H360.094V48.8125H360.973V52.7383H362.414V48.5312H363.316ZM358.91 49.8906C358.898 52.5391 357.973 55.0469 354.973 56.7109L354.434 56.0664C356.854 54.7188 357.855 52.8086 358.008 50.6523H354.832V49.8906H358.91ZM373.395 48.543V56.1602H372.48V48.543H373.395ZM373.723 57.9531V58.7266H366.668V55.3867H367.582V57.9531H373.723ZM367.77 49.2695C369.328 49.2695 370.5 50.3242 370.5 51.8242C370.5 53.3477 369.328 54.3906 367.77 54.3906C366.211 54.3906 365.039 53.3477 365.039 51.8242C365.039 50.3242 366.211 49.2695 367.77 49.2695ZM367.77 50.0781C366.715 50.0781 365.93 50.8047 365.941 51.8242C365.93 52.8672 366.715 53.582 367.77 53.582C368.801 53.582 369.598 52.8672 369.598 51.8242C369.598 50.8047 368.801 50.0781 367.77 50.0781ZM383.801 48.5312V54.7422H382.875V52.0117H380.777V51.25H382.875V48.5312H383.801ZM380.344 55.0703C382.512 55.0703 383.836 55.7734 383.836 57.0039C383.836 58.2344 382.512 58.9375 380.344 58.9492C378.176 58.9375 376.852 58.2344 376.852 57.0039C376.852 55.7734 378.176 55.0703 380.344 55.0703ZM380.344 55.7852C378.75 55.7852 377.754 56.2422 377.766 57.0039C377.754 57.7539 378.75 58.2109 380.344 58.2109C381.938 58.2109 382.922 57.7539 382.922 57.0039C382.922 56.2422 381.938 55.7852 380.344 55.7852ZM378.785 50.4414C378.785 51.8008 379.828 53.0898 381.352 53.6172L380.871 54.3555C379.699 53.9336 378.791 53.0605 378.352 51.9766C377.895 53.2012 376.928 54.1797 375.691 54.6484L375.211 53.9102C376.758 53.3477 377.859 51.9414 377.859 50.4531V50.0664H375.504V49.293H381.117V50.0664H378.785V50.4414ZM395.074 56.8516V57.6133H385.535V56.8516H389.824V54.6016H386.66V49.2695H387.586V51.1562H393V49.2695H393.902V54.6016H390.727V56.8516H395.074ZM387.586 53.8516H393V51.9062H387.586V53.8516ZM404.543 48.5312V58.9727H403.617V53.4883H401.332V52.7266H403.617V48.5312H404.543ZM399.504 51.9297C399.504 53.6523 400.676 55.3398 402.223 56.0312L401.695 56.7461C400.512 56.2012 399.527 55.0645 399.07 53.6875C398.613 55.1406 397.641 56.3594 396.457 56.9336L395.93 56.2188C397.453 55.5039 398.602 53.7227 398.602 51.9297V51.0977H396.211V50.3477H398.602V48.7305H399.516V50.3477H401.871V51.0977H399.504V51.9297ZM414.879 48.5312V58.9727H413.965V48.5312H414.879ZM411.715 49.5039V53.207H407.824V55.668C409.553 55.668 411.094 55.5918 412.957 55.293L413.051 56.0664C411.129 56.3711 409.547 56.4414 407.754 56.4414H406.887V52.457H410.789V50.2656H406.863V49.5039H411.715ZM421.453 55.082C423.598 55.082 424.887 55.7852 424.887 57.0039C424.887 58.2344 423.598 58.9375 421.453 58.9492C419.309 58.9375 417.996 58.2344 417.996 57.0039C417.996 55.7852 419.309 55.082 421.453 55.082ZM421.453 55.8086C419.883 55.8203 418.91 56.2539 418.922 57.0039C418.91 57.7539 419.883 58.1992 421.453 58.1992C423.035 58.1992 423.996 57.7539 423.996 57.0039C423.996 56.2539 423.035 55.8203 421.453 55.8086ZM424.793 48.5312V51.1562H426.363V51.9414H424.793V54.8008H423.879V48.5312H424.793ZM417.996 49.1875V50.7812H421.031V49.1875H421.945V53.9922H417.094V49.1875H417.996ZM417.996 53.2422H421.031V51.5078H417.996V53.2422ZM430.805 50.6523C430.805 51.9766 431.941 53.1484 433.5 53.5938L433.066 54.3203C431.836 53.9512 430.846 53.1484 430.371 52.1055C429.902 53.248 428.918 54.1328 427.676 54.543L427.23 53.8281C428.777 53.3242 429.891 52.0703 429.891 50.6523V50.5117H427.488V49.7734H429.891V48.4844H430.816V49.7734H433.195V50.5117H430.805V50.6523ZM435.621 48.543V54.7188H434.707V48.543H435.621ZM435.621 55.2461V58.8086H428.848V55.2461H435.621ZM429.75 55.9961V58.0586H434.719V55.9961H429.75Z" fill="#777798"/>
<path d="M450.895 49.4336V58.4961H450.172V49.4336H450.895Z" fill="#CECEDA"/>
<path d="M468.914 51.332C468.914 53.1719 470.133 55.0586 471.609 55.7852L471.047 56.5234C469.898 55.9199 468.938 54.6895 468.48 53.2422C468.012 54.7832 467.027 56.0957 465.855 56.7227L465.27 55.9844C466.793 55.2344 468 53.2305 468.012 51.332V49.4336H468.914V51.332ZM473.484 48.5312V52.7617H475.23V53.5586H473.484V58.9492H472.57V48.5312H473.484ZM478.664 49.0234C480.064 49.0117 481.125 49.8262 481.324 51.0273H483.504V48.5312H484.43V54.1211H483.504V51.7891H481.336C481.148 53.0195 480.076 53.8398 478.664 53.8398C477.082 53.8398 475.957 52.8555 475.957 51.4258C475.957 50.0078 477.082 49.0117 478.664 49.0234ZM478.664 49.8086C477.598 49.7969 476.836 50.4648 476.836 51.4258C476.836 52.375 477.598 53.0664 478.664 53.0664C479.719 53.0664 480.469 52.375 480.469 51.4258C480.469 50.4648 479.719 49.7969 478.664 49.8086ZM478.641 54.6484V55.9727H483.504V54.6484H484.43V58.8086H477.715V54.6484H478.641ZM478.641 58.0586H483.504V56.7109H478.641V58.0586ZM489.691 51.7305C489.68 53.4062 490.887 55.2461 492.398 55.9609L491.871 56.6875C490.699 56.1191 489.709 54.877 489.246 53.4648C488.766 55 487.717 56.3477 486.551 56.9453L485.988 56.2188C487.488 55.4922 488.777 53.5117 488.789 51.7305V50.3711H486.363V49.6094H492.035V50.3711H489.691V51.7305ZM494.227 48.5312V52.75H495.973V53.5352H494.227V58.9492H493.312V48.5312H494.227ZM505.172 48.5312V54.7422H504.246V52.0117H502.148V51.25H504.246V48.5312H505.172ZM501.715 55.0703C503.883 55.0703 505.207 55.7734 505.207 57.0039C505.207 58.2344 503.883 58.9375 501.715 58.9492C499.547 58.9375 498.223 58.2344 498.223 57.0039C498.223 55.7734 499.547 55.0703 501.715 55.0703ZM501.715 55.7852C500.121 55.7852 499.125 56.2422 499.137 57.0039C499.125 57.7539 500.121 58.2109 501.715 58.2109C503.309 58.2109 504.293 57.7539 504.293 57.0039C504.293 56.2422 503.309 55.7852 501.715 55.7852ZM500.156 50.4414C500.156 51.8008 501.199 53.0898 502.723 53.6172L502.242 54.3555C501.07 53.9336 500.162 53.0605 499.723 51.9766C499.266 53.2012 498.299 54.1797 497.062 54.6484L496.582 53.9102C498.129 53.3477 499.23 51.9414 499.23 50.4531V50.0664H496.875V49.293H502.488V50.0664H500.156V50.4414ZM516.445 56.8516V57.6133H506.906V56.8516H511.195V54.6016H508.031V49.2695H508.957V51.1562H514.371V49.2695H515.273V54.6016H512.098V56.8516H516.445ZM508.957 53.8516H514.371V51.9062H508.957V53.8516Z" fill="#B1B1C4"/>
<path d="M630.812 45.0171H619.145C616.855 45.0171 615 46.8521 615 49.1161V54.8841C615 57.1481 616.856 58.9841 619.145 58.9841H630.812C633.102 58.9841 634.957 57.1481 634.957 54.8841V49.1161C634.957 46.8521 633.101 45.0161 630.812 45.0161V45.0171ZM628.009 52.2801L622.552 54.8551C622.519 54.8711 622.482 54.8785 622.445 54.8765C622.408 54.8744 622.372 54.8631 622.341 54.8436C622.31 54.824 622.284 54.7968 622.266 54.7646C622.248 54.7323 622.238 54.6961 622.238 54.6591V49.3501C622.239 49.313 622.249 49.2766 622.267 49.2444C622.286 49.2122 622.312 49.1853 622.344 49.166C622.376 49.1467 622.412 49.1358 622.449 49.1343C622.486 49.1327 622.523 49.1406 622.556 49.1571L628.014 51.8921C628.05 51.9102 628.081 51.9383 628.102 51.9729C628.123 52.0076 628.134 52.0476 628.134 52.0882C628.133 52.1288 628.121 52.1685 628.099 52.2026C628.077 52.2367 628.046 52.2639 628.009 52.2811V52.2801Z" fill="#777798"/>
<path d="M662.045 45.865V48.613H660.031V51.973H662.045V61.959H666.179V51.974H668.954C668.954 51.974 669.214 50.363 669.34 48.601H666.196V46.303C666.196 45.96 666.646 45.498 667.092 45.498H669.346V42H666.282C661.942 42 662.045 45.363 662.045 45.865V45.865Z" fill="#777798"/>
<path d="M715 45.9069C714.25 46.2343 713.456 46.449 712.644 46.5439C713.497 46.0432 714.138 45.249 714.448 44.3099C713.64 44.7802 712.759 45.1115 711.841 45.2899C711.455 44.8851 710.99 44.5633 710.475 44.3441C709.96 44.1249 709.406 44.0129 708.846 44.0149C706.58 44.0149 704.743 45.8249 704.743 48.0549C704.743 48.3709 704.779 48.6799 704.849 48.9749C703.224 48.8976 701.632 48.4823 700.176 47.7556C698.72 47.0288 697.432 46.0065 696.393 44.7539C696.029 45.3683 695.837 46.0697 695.839 46.7839C695.84 47.4519 696.007 48.1091 696.325 48.6963C696.644 49.2835 697.104 49.782 697.663 50.1469C697.012 50.1259 696.376 49.9522 695.805 49.6399V49.6899C695.805 51.6479 697.22 53.2809 699.095 53.6529C698.743 53.7464 698.38 53.7938 698.015 53.7939C697.75 53.7939 697.493 53.7689 697.242 53.7189C697.51 54.5268 698.023 55.2312 698.71 55.7343C699.397 56.2373 700.223 56.514 701.074 56.5259C699.614 57.6505 697.822 58.258 695.979 58.2529C695.647 58.2529 695.321 58.2329 695 58.1969C696.881 59.3876 699.063 60.0182 701.289 60.0149C708.836 60.0149 712.962 53.8579 712.962 48.5189L712.948 47.9959C713.753 47.4296 714.448 46.7218 715 45.9069V45.9069Z" fill="#777798"/>
<path d="M749.017 42H740.947C739.37 42.0019 737.858 42.6291 736.744 43.7442C735.629 44.8593 735.002 46.3712 735 47.948V56.018C735.002 57.5948 735.629 59.1066 736.744 60.2215C737.859 61.3364 739.371 61.9634 740.948 61.965H749.018C750.595 61.9631 752.107 61.3359 753.221 60.2208C754.336 59.1057 754.963 57.5938 754.965 56.017V47.947C754.963 46.3702 754.336 44.8584 753.221 43.7435C752.106 42.6286 750.594 42.0016 749.017 42V42ZM752.957 56.017C752.957 56.5344 752.855 57.0467 752.657 57.5248C752.459 58.0028 752.169 58.4371 751.803 58.803C751.437 59.1689 751.003 59.4591 750.525 59.6571C750.047 59.8551 749.534 59.957 749.017 59.957H740.947C739.902 59.9567 738.9 59.5415 738.162 58.8026C737.423 58.0638 737.008 57.0618 737.008 56.017V47.947C737.008 46.9022 737.423 45.9003 738.162 45.1616C738.901 44.423 739.903 44.008 740.948 44.008H749.018C750.063 44.0083 751.065 44.4235 751.803 45.1624C752.542 45.9012 752.957 46.9032 752.957 47.948V56.018V56.017Z" fill="#777798"/>
<path d="M744.982 46.8191C743.614 46.8212 742.302 47.3659 741.334 48.3337C740.367 49.3015 739.822 50.6135 739.82 51.9821C739.822 53.351 740.366 54.6634 741.334 55.6315C742.302 56.5996 743.614 57.1442 744.983 57.1461C746.352 57.1445 747.665 56.5999 748.633 55.6318C749.601 54.6637 750.146 53.3512 750.147 51.9821C750.145 50.6132 749.6 49.301 748.632 48.3333C747.664 47.3656 746.351 46.8214 744.982 46.8201V46.8191ZM744.982 55.1381C744.146 55.1381 743.343 54.8057 742.751 54.214C742.16 53.6223 741.827 52.8198 741.827 51.9831C741.827 51.1463 742.16 50.3438 742.751 49.7522C743.343 49.1605 744.146 48.8281 744.982 48.8281C745.819 48.8281 746.622 49.1605 747.213 49.7522C747.805 50.3438 748.137 51.1463 748.137 51.9831C748.137 52.8198 747.805 53.6223 747.213 54.214C746.622 54.8057 745.819 55.1381 744.982 55.1381V55.1381Z" fill="#777798"/>
<path d="M750.155 48.0951C750.838 48.0951 751.392 47.5413 751.392 46.8581C751.392 46.1749 750.838 45.6211 750.155 45.6211C749.472 45.6211 748.918 46.1749 748.918 46.8581C748.918 47.5413 749.472 48.0951 750.155 48.0951Z" fill="#777798"/>
<path d="M794.959 53.7189V61.0979H790.681V54.2129C790.681 52.4829 790.062 51.3029 788.514 51.3029C787.332 51.3029 786.628 52.0989 786.319 52.8679C786.206 53.1429 786.177 53.5259 786.177 53.9109V61.0979H781.897C781.897 61.0979 781.955 49.4379 781.897 48.2289H786.177V50.0529L786.149 50.0949H786.177V50.0529C786.745 49.1779 787.76 47.9269 790.033 47.9269C792.848 47.9269 794.959 49.7669 794.959 53.7189V53.7189ZM777.421 42.0259C775.958 42.0259 775 42.9859 775 44.2489C775 45.4839 775.93 46.4729 777.365 46.4729H777.393C778.886 46.4729 779.813 45.4839 779.813 44.2489C779.787 42.9859 778.887 42.0259 777.422 42.0259H777.421ZM775.254 61.0979H779.532V48.2289H775.254V61.0979Z" fill="#777798"/>
<path d="M102.209 63.0708C100.222 62.5842 98.6757 61.9119 97.6065 61.1628C95.8398 62.0229 93.4828 62.8467 89.8022 62.8467C85.0167 62.8467 81.7773 60.0038 81.7773 56.3392C81.7773 54.3565 82.9181 52.4485 85.0167 51.1402C86.5629 50.167 88.6615 49.6057 93.0058 49.6057H95.1045C95.1045 47.8107 94.2578 47.0616 92.5646 47.0616C90.8714 47.0616 88.3674 47.9601 86.5629 49.6057L82.5862 44.6691C84.1323 43.0982 87.9619 40.7783 93.7054 40.7783C100.295 40.7783 103.608 43.7322 103.608 48.7819V52.8967C103.608 54.9905 103.867 55.3277 106.001 56.0384L102.209 63.0708ZM95.1045 54.5443H93.447C92.1592 54.5443 91.5332 54.619 91.09 54.7684C90.4282 54.9925 90.1321 55.3661 90.1321 55.8526C90.1321 56.4503 90.4263 57.0863 92.0459 57.0863C93.298 57.0863 94.1068 56.8238 95.176 56.4503L95.1025 54.5423L95.1045 54.5443Z" fill="#777798"/>
<path d="M12.8772 40.3099C12.8772 40.3099 12.0782 39.7021 10.7805 40.3099C9.48477 40.9196 1.10216 49.5875 1.00081 57.2417C0.901438 64.896 10.0194 65.4048 15.5919 61.9583C22.2554 57.8374 26.3593 48.8727 25.1112 42.761C25.1112 42.761 24.3044 39.6153 20.912 40.0393C17.5196 40.4633 5.4922 53.9466 5.4922 53.9466C5.4922 53.9466 10.9315 48.0651 12.279 45.3293C13.6264 42.5914 14.0258 41.4264 12.8772 40.3099Z" fill="#777798"/>
<path d="M38.3138 42.0665L40.5297 60.02L35.7938 41.6344C35.6647 41.1317 35.2155 40.7803 34.7048 40.7803H27.4549C26.8329 40.7803 26.3281 41.2932 26.3281 41.9251V62.0169C26.3281 62.6488 26.8329 63.1617 27.4549 63.1617H32.0079C32.7194 63.1617 33.252 62.4994 33.1129 61.7907L30.75 49.854L36.71 62.5095C36.8968 62.9073 37.2923 63.1596 37.7255 63.1596H45.502C46.124 63.1596 46.6288 62.6468 46.6288 62.0148V41.9231C46.6288 41.2912 46.124 40.7783 45.502 40.7783H39.4327C38.755 40.7783 38.2303 41.382 38.3138 42.0645V42.0665Z" fill="#777798"/>
<path d="M69.2021 52.0671L70.8953 50.2196C71.5929 49.4584 71.2689 48.2167 70.2892 47.9078L67.8845 47.1486L68.431 44.6874C68.6536 43.6799 67.7732 42.7773 66.7795 42.9974L64.2854 43.5506L63.5163 41.1157C63.2083 40.1404 62.0119 39.8113 61.2627 40.4978L59.3668 42.2342L57.4708 40.4978C56.7216 39.8113 55.5252 40.1404 55.2172 41.1157L54.4481 43.5506L51.954 42.9974C50.9603 42.7773 50.0779 43.6799 50.3025 44.6874L50.849 47.1486L48.4443 47.9078C47.4666 48.2167 47.1406 49.4564 47.8382 50.2196L49.5314 52.0671L47.8382 53.9145C47.1406 54.6757 47.4646 55.9174 48.4443 56.2263L50.849 56.9855L50.3025 59.4467C50.0799 60.4542 50.9623 61.3568 51.954 61.1367L54.4481 60.5835L55.2172 63.0185C55.5252 63.9937 56.7216 64.3228 57.4708 63.6363L59.3668 61.8999L61.2627 63.6363C62.0119 64.3228 63.2083 63.9937 63.5163 63.0185L64.2854 60.5835L66.7795 61.1367C67.7732 61.3568 68.6556 60.4542 68.431 59.4467L67.8845 56.9855L70.2892 56.2263C71.2669 55.9174 71.5929 54.6777 70.8953 53.9145L69.2021 52.0671Z" fill="#777798"/>
<path d="M80.2576 43.3689C80.9849 43.3689 81.5752 42.7693 81.5752 42.0303C81.5752 41.2913 80.9849 40.6917 80.2576 40.6917H72.1731C71.4457 40.6917 70.8555 41.2913 70.8555 42.0303C70.8555 42.7693 71.4457 43.3689 72.1731 43.3689H73.0753V60.3917H72.1731C71.4457 60.3917 70.8555 60.9913 70.8555 61.7303C70.8555 62.4693 71.4457 63.0689 72.1731 63.0689H80.2576C80.9849 63.0689 81.5752 62.4693 81.5752 61.7303C81.5752 60.9913 80.9849 60.3917 80.2576 60.3917H79.3553V43.3689H80.2576Z" fill="#777798"/>
</g>
<defs>
<clipPath id="clip0_4647_83078">
<rect width="800" height="161" fill="white"/>
</clipPath>
</defs>
</svg>
