<svg width="140" height="47" viewBox="0 0 140 47" fill="none" xmlns="http://www.w3.org/2000/svg">
<path d="M126.643 35.8555C124.27 35.2943 122.424 34.5189 121.147 33.6549C119.038 34.6469 116.223 35.597 111.828 35.597C106.114 35.597 102.246 32.3183 102.246 28.0917C102.246 25.8049 103.608 23.6043 106.114 22.0953C107.96 20.9729 110.466 20.3255 115.654 20.3255H118.16C118.16 18.2553 117.149 17.3914 115.127 17.3914C113.105 17.3914 110.115 18.4277 107.96 20.3255L103.212 14.6319C105.058 12.8202 109.631 10.1445 116.489 10.1445C124.358 10.1445 128.314 13.5514 128.314 19.3754V24.1213C128.314 26.5361 128.622 26.925 131.171 27.7447L126.643 35.8555ZM118.16 26.0215H116.181C114.643 26.0215 113.895 26.1077 113.366 26.28C112.576 26.5385 112.222 26.9693 112.222 27.5305C112.222 28.2198 112.574 28.9533 114.508 28.9533C116.003 28.9533 116.968 28.6506 118.245 28.2198L118.157 26.0192L118.16 26.0215Z" fill="#32FBA5"/>
<path d="M23.5739 10.3422C23.5739 10.3422 22.6609 9.66913 21.1777 10.3422C19.6969 11.0175 10.1168 20.6171 10.0009 29.0941C9.88736 37.5711 20.3078 38.1346 26.6764 34.3176C34.2919 29.7538 38.982 19.8255 37.5557 13.0568C37.5557 13.0568 36.6336 9.57298 32.7565 10.0426C28.8795 10.5121 15.1339 25.4448 15.1339 25.4448C15.1339 25.4448 21.3503 18.931 22.8902 15.9011C24.4302 12.869 24.8867 11.5788 23.5739 10.3422Z" fill="#FC673B"/>
<path d="M52.6432 12.2875L55.1756 32.1708L49.7633 11.8089C49.6156 11.2522 49.1023 10.8631 48.5186 10.8631H40.2331C39.5222 10.8631 38.9453 11.431 38.9453 12.1309V34.3823C38.9453 35.0822 39.5222 35.6502 40.2331 35.6502H45.4365C46.2496 35.6502 46.8583 34.9168 46.6994 34.1319L43.9988 20.9121L50.8103 34.9279C51.0238 35.3685 51.4758 35.648 51.9709 35.648H60.8583C61.5692 35.648 62.1461 35.08 62.1461 34.3801V12.1287C62.1461 11.4288 61.5692 10.8608 60.8583 10.8608H53.9219C53.1474 10.8608 52.5478 11.5294 52.6432 12.2852V12.2875Z" fill="#D1BDAD"/>
<path d="M88.1461 23.2891L90.0924 21.2317C90.8942 20.384 90.5218 19.0012 89.3956 18.6572L86.6316 17.8117L87.2598 15.0708C87.5156 13.9488 86.5036 12.9437 85.3615 13.1888L82.4946 13.8049L81.6106 11.0932C81.2565 10.0071 79.8813 9.64063 79.0201 10.4051L76.8408 12.3389L74.6616 10.4051C73.8004 9.64063 72.4252 10.0071 72.0711 11.0932L71.1871 13.8049L68.3202 13.1888C67.178 12.9437 66.1638 13.9488 66.4219 15.0708L67.0501 17.8117L64.286 18.6572C63.1621 19.0012 62.7875 20.3818 63.5893 21.2317L65.5356 23.2891L63.5893 25.3465C62.7875 26.1942 63.1598 27.577 64.286 27.9211L67.0501 28.7665L66.4219 31.5074C66.166 32.6295 67.1803 33.6345 68.3202 33.3895L71.1871 32.7734L72.0711 35.4851C72.4252 36.5711 73.8004 36.9376 74.6616 36.1731L76.8408 34.2394L79.0201 36.1731C79.8813 36.9376 81.2565 36.5711 81.6106 35.4851L82.4946 32.7734L85.3615 33.3895C86.5036 33.6345 87.5179 32.6295 87.2598 31.5074L86.6316 28.7665L89.3956 27.9211C90.5195 27.577 90.8942 26.1965 90.0924 25.3465L88.1461 23.2891Z" fill="#9985F4"/>
<path d="M100.581 13.7297C101.412 13.7297 102.087 13.0656 102.087 12.2472C102.087 11.4288 101.412 10.7646 100.581 10.7646H91.3418C90.5105 10.7646 89.8359 11.4288 89.8359 12.2472C89.8359 13.0656 90.5105 13.7297 91.3418 13.7297H92.3729V32.6696H91.3418C90.5105 32.6696 89.8359 33.3337 89.8359 34.1521C89.8359 34.9705 90.5105 35.6347 91.3418 35.6347H100.581C101.412 35.6347 102.087 34.9705 102.087 34.1521C102.087 33.3337 101.412 32.6696 100.581 32.6696H99.5501V13.7297H100.581Z" fill="#9494AE"/>
</svg>
